# xmcd CD database file
#
# Track frame offsets:
#	150
#	11765
#	22705
#	32765
#	45705
#	57492
#	69845
#	81722
#	92177
#	105675
#	118507
#	139672
#	152800
#	168837
#	180790
#	192625
#	205410
#	215937
#	229170
#	241352
#	254442
#	265992
#	278350
#	292340
#	305407
#	322500
#
# Disc length: 4443 seconds
#
# Revision: 3
# Processed by: cddbd v1.5.1PL0 Copyright (c) Steve Scherf et al.
# Submitted via: CDex 1.51
#
DISCID=7611591a
DTITLE=Various Artist - Columbia Country Classics Vol. IV - The Nashville Sound
DYEAR=1990
DGENRE=Country
TTITLE0=Johnny Cash - I Still Miss Someone
TTITLE1=Marty Robbins - Singing The Blues
TTITLE2=Billy Walker - Charlie's Shoes
TTITLE3=Marty Robbins - Devil Woman
TTITLE4=Johnny Cash - Ring Of Fire
TTITLE5=Johnny Cash and June Carter - Jackson
TTITLE6=Stonewall Jackson - A Wound Time Can't Erase
TTITLE7=Hawkshaw Hawkins - I Can't Seem To Say Goodbye
TTITLE8=Marion Worth - I Think I Know
TTITLE9=Billy Walker - Funny How Time Slips Away
TTITLE10=Ray Price - Night Live
TTITLE11=David Houston - Almost Persuaded
TTITLE12=David Houston and Tammy Wynette - My Elusive Dreams
TTITLE13=Tammy Wynette - Stand By Your Man
TTITLE14=Sandy Posey - Bring Him Home Safely To Me
TTITLE15=Charlie Rich - I Take It On Home
TTITLE16=George Jones and Tammy Wynette - Take Me
TTITLE17=Charlie Rich - Behind Closed Doors
TTITLE18=Charlie Rich - The Most Beautiful Girl
TTITLE19=Johnny Paycheck - She's All I Got
TTITLE20=George Jones - A Picture Of Me (Without You)
TTITLE21=Barbara Mandrell - The Midnight Oil
TTITLE22=George Jones - The Grand Tour
TTITLE23=Lynn Anderson - I Never Promised You A Rose Garden
TTITLE24=Ray Price - For The Good Times
TTITLE25=Tanya Tucker - Would You Lay With Me (In A Field Of Stone)
EXTD=YEAR: 1990
EXTT0=
EXTT1=
EXTT2=
EXTT3=
EXTT4=
EXTT5=
EXTT6=
EXTT7=
EXTT8=
EXTT9=
EXTT10=
EXTT11=
EXTT12=
EXTT13=
EXTT14=
EXTT15=
EXTT16=
EXTT17=
EXTT18=
EXTT19=
EXTT20=
EXTT21=
EXTT22=
EXTT23=
EXTT24=
EXTT25=
PLAYORDER=
